<svg width="1605" height="203" viewBox="0 0 1605 203" fill="none" xmlns="http://www.w3.org/2000/svg">
<g filter="url(#filter0_d_93_27)">
<path d="M1596.55 120.887L1600.04 185.481H1504.27V69.5102L1501.28 53.0497V32.5989L1502.53 29.6061V2.6709L1529.96 3.9179H1596.55V120.887ZM1531.46 160.042H1571.11V79.2368L1568.62 33.0977L1566.87 30.1049H1528.71L1531.46 72.2536L1529.96 74.4982L1531.46 77.9898L1529.46 80.2344L1531.46 80.9826V160.042Z" fill="white"/>
</g>
<g filter="url(#filter1_d_93_27)">
<path d="M1483.15 167.276V177.502L1472.67 185.483H1463.2L1457.21 181.991L1452.22 176.504L1449.23 169.77V164.284L1452.97 158.298L1458.46 153.061L1464.69 149.818H1470.43L1476.41 153.809L1480.65 159.794L1483.15 167.276Z" fill="white"/>
</g>
<g filter="url(#filter2_d_93_27)">
<path d="M1432.28 183.237H1344.5V151.064L1375.92 126.374L1401.61 98.1915L1399.61 72.2539V38.8342L1394.87 34.345H1372.68L1368.94 36.0908L1367.94 49.0596V63.5249L1371.18 88.2155V93.7023L1369.93 98.6903L1370.93 101.434V115.899H1366.69L1355.97 117.645L1342.5 121.136L1339.26 50.556V28.6088L1338.26 22.3738L1339.76 21.3762L1349.73 4.41699L1360.96 5.66399H1382.4L1386.89 4.41699L1407.59 5.66399L1410.34 4.6664L1412.33 5.1652L1419.07 11.4002L1426.3 19.381V48.062L1425.3 51.3042V53.5489L1428.29 55.0452L1427.05 58.2875V92.7047L1428.29 119.889L1420.06 125.875L1400.36 138.345L1398.37 138.594L1393.38 143.582L1381.16 152.81L1381.66 155.055L1382.9 156.052H1429.04V177.002L1432.28 183.237Z" fill="white"/>
</g>
<g filter="url(#filter3_d_93_27)">
<path d="M1323.95 108.417V182.988L1322.21 184.734L1300.01 182.739H1245.89L1235.42 183.238L1233.92 172.513L1231.93 148.072V127.122L1230.93 122.134L1232.18 109.166L1230.68 104.676V80.734L1233.17 72.2544V47.8132L1230.18 44.3216L1231.93 42.8252V0.925927H1313.98L1318.47 0.177734L1322.96 4.41753L1321.46 10.1537V78.24L1314.98 77.2424L1310.49 74.9978L1308.24 75.2472L1307 73.252L1302.51 74.499H1299.76L1294.53 73.0026V41.3288L1295.52 37.089V25.866H1256.62V39.0842L1260.11 75.4966L1258.61 78.9882V134.604L1257.37 135.851L1259.36 137.847L1257.86 142.086V146.326L1259.36 147.074L1258.61 157.05L1266.84 158.297H1298.77V114.902L1323.95 108.417Z" fill="white"/>
</g>
<g filter="url(#filter4_d_93_27)">
<path d="M1212.01 42.3255L1213.5 43.3231L1212.51 47.5629V73.0018L1190.31 74.7476L1193.3 95.1984L1194.3 95.9466L1204.28 142.335L1203.53 145.328L1212.01 186.978H1189.06L1162.38 73.9994L1158.89 74.7476H1150.9L1146.91 73.9994L1144.17 75.2464L1146.42 127.371L1144.92 130.863L1146.42 136.349V139.093L1145.67 141.337L1147.16 149.817L1144.92 151.313L1147.16 154.556L1144.67 163.783V178.997L1145.42 185.731H1118.98L1119.73 177.75V94.4502L1116.74 55.7931L1117.73 33.0977V6.4119L1118.23 2.6709H1210.51L1212.76 5.66369L1212.01 8.40711V42.3255ZM1185.32 44.3207L1185.82 37.3375L1185.32 31.6013H1143.67V43.3231L1185.32 44.3207Z" fill="white"/>
</g>
<g filter="url(#filter5_d_93_27)">
<path d="M1097.6 185.481H1001.58V72.7524L997.093 68.762L997.841 65.7692V49.5582L1000.09 29.6061V7.90829L999.587 2.6709L1018.04 3.9179H1077.9V82.9778L1096.35 82.2296L1097.6 83.726V185.481ZM1055.45 160.791L1068.67 160.042L1066.92 137.846V109.664L1045.23 111.659H1028.77L1028.02 116.148V160.042L1033.51 160.791H1055.45ZM1051.71 33.0977L1050.22 30.1049H1028.27V65.5198L1027.52 66.0186V69.0114L1029.02 72.2536L1027.52 74.4982L1029.02 77.9898L1026.77 80.2344L1029.02 80.9826L1028.77 84.2248H1051.71V33.0977Z" fill="white"/>
</g>
<g filter="url(#filter6_d_93_27)">
<path d="M923.981 152.561L924.729 153.059L921.238 169.52V175.505L923.233 178.748L922.236 187.227L903.53 186.23L901.036 186.728H828.96L827.214 181.491L825.468 165.779V112.407L826.466 110.911L836.941 110.412H853.152V122.134L854.897 124.628L853.401 125.875V148.57L852.653 150.565L853.9 161.29H897.545L894.801 116.896L824.72 83.4766V5.41436H864.125L865.372 4.41676L869.612 4.91557L870.61 5.91318L878.59 4.41676L879.837 5.91318L887.569 3.91797L891.559 4.16737L892.307 5.41436L911.262 3.91797L912.509 5.41436L918.245 7.16018L919.243 18.1338L917.746 18.882L920.739 23.1218V30.105L919.741 31.8508L921.487 35.093V77.9898L896.298 75.7452L894.053 67.7644V34.3448L889.564 33.846L877.842 34.5942H850.408V44.3208L851.905 46.8148L850.907 49.5582V55.5438L851.905 56.5414L851.156 58.786V64.0234L854.399 66.5174L912.01 96.4455V98.4407L923.233 103.429V105.174L921.986 105.923L923.483 141.587L921.986 148.82L923.732 149.817L923.981 152.561Z" fill="white"/>
</g>
<g filter="url(#filter7_d_93_27)">
<path d="M815.255 151.313V185.98H726.219V7.1598L724.224 4.16699H753.154L756.147 64.0231V115.15L754.401 154.805L756.396 156.551L815.255 151.313Z" fill="white"/>
</g>
<g filter="url(#filter8_d_93_27)">
<path d="M719.097 163.036V188.974L709.37 188.475L705.629 189.223L703.385 187.727L693.658 189.223H631.308V178L629.313 169.271V6.41264L627.068 5.41504H712.114L717.351 7.41025V33.8467L713.361 32.1009H665.476L655.251 32.5997L653.754 34.0961V51.5541L655.001 61.0313V78.2399L656.996 79.9857H681.936L698.147 78.2399L698.646 88.9641L697.649 89.9617L698.896 107.669H653.754L656.747 123.88V144.331L655.999 152.312L656.996 163.036H719.097Z" fill="white"/>
</g>
<g filter="url(#filter9_d_93_27)">
<path d="M611.888 42.3255L613.385 43.3231L612.387 47.5629V73.0018L590.19 74.7476L593.183 95.1984L594.181 95.9466L604.157 142.335L603.409 145.328L611.888 186.978H588.943L562.258 73.9994L558.766 74.7476H550.785L546.795 73.9994L544.051 75.2464L546.296 127.371L544.8 130.863L546.296 136.349V139.093L545.548 141.337L547.044 149.817L544.8 151.313L547.044 154.556L544.55 163.783V178.997L545.298 185.731H518.862L519.61 177.75V94.4502L516.617 55.7931L517.615 33.0977V6.4119L518.114 2.6709H610.392L612.636 5.66369L611.888 8.40711V42.3255ZM585.202 44.3207L585.701 37.3375L585.202 31.6013H543.553V43.3231L585.202 44.3207Z" fill="white"/>
</g>
<g filter="url(#filter10_d_93_27)">
<path d="M401.451 182.488V160.541L399.206 157.049L400.952 154.555V122.133L398.209 120.387L399.456 119.14V106.421L397.71 103.927L398.957 97.1931V4.91504H493.978V10.9006L497.221 24.8671V31.6009L496.472 33.3467L500.712 71.0061L499.964 72.2531L498.218 73.2507L482.755 72.2531H476.271L474.525 73.9989L480.511 102.68L490.986 143.582L493.48 156.8L492.731 157.797L494.477 159.543L496.223 169.769L495.724 173.26L497.969 175.754L499.964 189.471H474.525L463.053 156.052L459.561 143.831L449.086 94.4497L445.345 73.5001H426.141L430.132 127.869V148.32L430.88 165.279L428.386 187.975L403.945 188.972L401.7 186.728L401.451 182.488ZM425.144 48.8095H471.532L471.033 41.5769L471.532 32.5985H425.144L426.64 40.0805V45.3179L425.144 48.8095ZM401.201 181.989L401.451 182.239L401.201 182.488V181.989Z" fill="white"/>
</g>
<g filter="url(#filter11_d_93_27)">
<path d="M348.884 5.16504H378.812V165.031L376.567 191.467L346.39 187.477V8.40725L344.145 7.65904L348.884 5.16504Z" fill="white"/>
</g>
<g filter="url(#filter12_d_93_27)">
<path d="M293.87 6.91113H325.045L323.299 18.3835V188.475H247.232L227.031 189.971V163.036L226.033 160.043L229.026 139.093V6.91113H253.716V88.9638L256.709 125.875L255.712 127.122L253.716 162.537H291.625L293.87 159.544V6.91113Z" fill="white"/>
</g>
<g filter="url(#filter13_d_93_27)">
<path d="M210.475 140.091L208.978 141.088L209.228 145.328L208.479 156.052L207.482 158.047L208.729 159.045L206.734 160.043L207.482 162.786L209.726 166.776L207.482 168.772L208.978 169.27L207.981 175.506V186.479L205.736 189.472H186.781L183.789 187.726V188.973H173.064V198.949L150.618 196.954V188.474H124.681L122.187 186.978L120.94 188.225H118.945L115.204 139.342V62.7766L116.7 54.7958V49.5584L115.204 48.062L116.949 43.5728V41.827L115.204 40.8294L116.7 39.0836L114.705 3.16992H201.496L205.736 5.41452V42.0764L208.23 45.568L207.981 48.5608L205.985 54.297L207.482 55.544L206.734 67.5152L208.479 68.5128L207.482 81.9804L208.978 84.7238V88.4648L206.734 90.2106L208.729 121.386V139.093L210.475 140.091ZM183.29 143.582V139.342L182.542 125.127L180.796 121.635V68.5128L178.801 67.7646L180.546 65.0212V39.333L181.295 31.851H141.141L142.139 46.815L141.141 48.8102L142.388 49.309V50.556L141.141 52.8006L142.388 58.2874V86.2202L143.885 92.2058L143.386 93.2034L141.64 94.201L145.381 96.4456L141.141 99.9372L143.885 116.398V121.884L142.388 125.875L143.386 128.119L144.633 128.868V133.606L143.386 134.853H142.638L144.633 139.342L143.386 140.589H142.388L144.633 143.333V148.82L143.386 160.292L144.134 161.788H150.618V123.88L173.064 125.875L175.06 160.541L180.297 160.043L182.791 158.796V146.575L181.793 144.58L183.29 143.582Z" fill="white"/>
</g>
<g filter="url(#filter14_d_93_27)">
<path d="M99.3044 152.561L100.053 153.059L96.561 169.52V175.505L98.5562 178.748L97.5586 187.227L78.8536 186.23L76.3596 186.728H4.2829L2.53709 181.491L0.791292 165.779V112.407L1.78889 110.911L12.2637 110.412H28.4747V122.134L30.2205 124.628L28.7241 125.875V148.57L27.9759 150.565L29.2229 161.29H72.868L70.1246 116.896L0.0430908 83.4766V5.41436H39.4483L40.6953 4.41676L44.9351 4.91557L45.9327 5.91318L53.9135 4.41676L55.1605 5.91318L62.892 3.91797L66.8824 4.16737L67.6306 5.41436L86.585 3.91797L87.832 5.41436L93.5682 7.16018L94.5658 18.1338L93.0694 18.882L96.0622 23.1218V30.105L95.0646 31.8508L96.8104 35.093V77.9898L71.621 75.7452L69.3764 67.7644V34.3448L64.8872 33.846L53.1654 34.5942H25.7313V44.3208L27.2277 46.8148L26.2301 49.5582V55.5438L27.2277 56.5414L26.4795 58.786V64.0234L29.7217 66.5174L87.3332 96.4455V98.4407L98.5562 103.429V105.174L97.3092 105.923L98.8056 141.587L97.3092 148.82L99.055 149.817L99.3044 152.561Z" fill="white"/>
</g>
<defs>
<filter id="filter0_d_93_27" x="1501.28" y="2.6709" width="102.763" height="186.811" filterUnits="userSpaceOnUse" color-interpolation-filters="sRGB">
<feFlood flood-opacity="0" result="BackgroundImageFix"/>
<feColorMatrix in="SourceAlpha" type="matrix" values="0 0 0 0 0 0 0 0 0 0 0 0 0 0 0 0 0 0 127 0" result="hardAlpha"/>
<feOffset dx="4" dy="4"/>
<feComposite in2="hardAlpha" operator="out"/>
<feColorMatrix type="matrix" values="0 0 0 0 0 0 0 0 0 0 0 0 0 0 0 0 0 0 1 0"/>
<feBlend mode="normal" in2="BackgroundImageFix" result="effect1_dropShadow_93_27"/>
<feBlend mode="normal" in="SourceGraphic" in2="effect1_dropShadow_93_27" result="shape"/>
</filter>
<filter id="filter1_d_93_27" x="1449.23" y="149.818" width="37.9185" height="39.6641" filterUnits="userSpaceOnUse" color-interpolation-filters="sRGB">
<feFlood flood-opacity="0" result="BackgroundImageFix"/>
<feColorMatrix in="SourceAlpha" type="matrix" values="0 0 0 0 0 0 0 0 0 0 0 0 0 0 0 0 0 0 127 0" result="hardAlpha"/>
<feOffset dx="4" dy="4"/>
<feComposite in2="hardAlpha" operator="out"/>
<feColorMatrix type="matrix" values="0 0 0 0 0 0 0 0 0 0 0 0 0 0 0 0 0 0 1 0"/>
<feBlend mode="normal" in2="BackgroundImageFix" result="effect1_dropShadow_93_27"/>
<feBlend mode="normal" in="SourceGraphic" in2="effect1_dropShadow_93_27" result="shape"/>
</filter>
<filter id="filter2_d_93_27" x="1338.26" y="4.41699" width="98.0238" height="182.82" filterUnits="userSpaceOnUse" color-interpolation-filters="sRGB">
<feFlood flood-opacity="0" result="BackgroundImageFix"/>
<feColorMatrix in="SourceAlpha" type="matrix" values="0 0 0 0 0 0 0 0 0 0 0 0 0 0 0 0 0 0 127 0" result="hardAlpha"/>
<feOffset dx="4" dy="4"/>
<feComposite in2="hardAlpha" operator="out"/>
<feColorMatrix type="matrix" values="0 0 0 0 0 0 0 0 0 0 0 0 0 0 0 0 0 0 1 0"/>
<feBlend mode="normal" in2="BackgroundImageFix" result="effect1_dropShadow_93_27"/>
<feBlend mode="normal" in="SourceGraphic" in2="effect1_dropShadow_93_27" result="shape"/>
</filter>
<filter id="filter3_d_93_27" x="1230.18" y="0.177734" width="97.7744" height="188.557" filterUnits="userSpaceOnUse" color-interpolation-filters="sRGB">
<feFlood flood-opacity="0" result="BackgroundImageFix"/>
<feColorMatrix in="SourceAlpha" type="matrix" values="0 0 0 0 0 0 0 0 0 0 0 0 0 0 0 0 0 0 127 0" result="hardAlpha"/>
<feOffset dx="4" dy="4"/>
<feComposite in2="hardAlpha" operator="out"/>
<feColorMatrix type="matrix" values="0 0 0 0 0 0 0 0 0 0 0 0 0 0 0 0 0 0 1 0"/>
<feBlend mode="normal" in2="BackgroundImageFix" result="effect1_dropShadow_93_27"/>
<feBlend mode="normal" in="SourceGraphic" in2="effect1_dropShadow_93_27" result="shape"/>
</filter>
<filter id="filter4_d_93_27" x="1116.74" y="2.6709" width="100.767" height="188.307" filterUnits="userSpaceOnUse" color-interpolation-filters="sRGB">
<feFlood flood-opacity="0" result="BackgroundImageFix"/>
<feColorMatrix in="SourceAlpha" type="matrix" values="0 0 0 0 0 0 0 0 0 0 0 0 0 0 0 0 0 0 127 0" result="hardAlpha"/>
<feOffset dx="4" dy="4"/>
<feComposite in2="hardAlpha" operator="out"/>
<feColorMatrix type="matrix" values="0 0 0 0 0 0 0 0 0 0 0 0 0 0 0 0 0 0 1 0"/>
<feBlend mode="normal" in2="BackgroundImageFix" result="effect1_dropShadow_93_27"/>
<feBlend mode="normal" in="SourceGraphic" in2="effect1_dropShadow_93_27" result="shape"/>
</filter>
<filter id="filter5_d_93_27" x="997.093" y="2.6709" width="104.508" height="186.811" filterUnits="userSpaceOnUse" color-interpolation-filters="sRGB">
<feFlood flood-opacity="0" result="BackgroundImageFix"/>
<feColorMatrix in="SourceAlpha" type="matrix" values="0 0 0 0 0 0 0 0 0 0 0 0 0 0 0 0 0 0 127 0" result="hardAlpha"/>
<feOffset dx="4" dy="4"/>
<feComposite in2="hardAlpha" operator="out"/>
<feColorMatrix type="matrix" values="0 0 0 0 0 0 0 0 0 0 0 0 0 0 0 0 0 0 1 0"/>
<feBlend mode="normal" in2="BackgroundImageFix" result="effect1_dropShadow_93_27"/>
<feBlend mode="normal" in="SourceGraphic" in2="effect1_dropShadow_93_27" result="shape"/>
</filter>
<filter id="filter6_d_93_27" x="824.72" y="3.91797" width="104.01" height="187.31" filterUnits="userSpaceOnUse" color-interpolation-filters="sRGB">
<feFlood flood-opacity="0" result="BackgroundImageFix"/>
<feColorMatrix in="SourceAlpha" type="matrix" values="0 0 0 0 0 0 0 0 0 0 0 0 0 0 0 0 0 0 127 0" result="hardAlpha"/>
<feOffset dx="4" dy="4"/>
<feComposite in2="hardAlpha" operator="out"/>
<feColorMatrix type="matrix" values="0 0 0 0 0 0 0 0 0 0 0 0 0 0 0 0 0 0 1 0"/>
<feBlend mode="normal" in2="BackgroundImageFix" result="effect1_dropShadow_93_27"/>
<feBlend mode="normal" in="SourceGraphic" in2="effect1_dropShadow_93_27" result="shape"/>
</filter>
<filter id="filter7_d_93_27" x="724.224" y="4.16699" width="95.031" height="185.812" filterUnits="userSpaceOnUse" color-interpolation-filters="sRGB">
<feFlood flood-opacity="0" result="BackgroundImageFix"/>
<feColorMatrix in="SourceAlpha" type="matrix" values="0 0 0 0 0 0 0 0 0 0 0 0 0 0 0 0 0 0 127 0" result="hardAlpha"/>
<feOffset dx="4" dy="4"/>
<feComposite in2="hardAlpha" operator="out"/>
<feColorMatrix type="matrix" values="0 0 0 0 0 0 0 0 0 0 0 0 0 0 0 0 0 0 1 0"/>
<feBlend mode="normal" in2="BackgroundImageFix" result="effect1_dropShadow_93_27"/>
<feBlend mode="normal" in="SourceGraphic" in2="effect1_dropShadow_93_27" result="shape"/>
</filter>
<filter id="filter8_d_93_27" x="627.068" y="5.41504" width="96.0287" height="187.808" filterUnits="userSpaceOnUse" color-interpolation-filters="sRGB">
<feFlood flood-opacity="0" result="BackgroundImageFix"/>
<feColorMatrix in="SourceAlpha" type="matrix" values="0 0 0 0 0 0 0 0 0 0 0 0 0 0 0 0 0 0 127 0" result="hardAlpha"/>
<feOffset dx="4" dy="4"/>
<feComposite in2="hardAlpha" operator="out"/>
<feColorMatrix type="matrix" values="0 0 0 0 0 0 0 0 0 0 0 0 0 0 0 0 0 0 1 0"/>
<feBlend mode="normal" in2="BackgroundImageFix" result="effect1_dropShadow_93_27"/>
<feBlend mode="normal" in="SourceGraphic" in2="effect1_dropShadow_93_27" result="shape"/>
</filter>
<filter id="filter9_d_93_27" x="516.617" y="2.6709" width="100.767" height="188.307" filterUnits="userSpaceOnUse" color-interpolation-filters="sRGB">
<feFlood flood-opacity="0" result="BackgroundImageFix"/>
<feColorMatrix in="SourceAlpha" type="matrix" values="0 0 0 0 0 0 0 0 0 0 0 0 0 0 0 0 0 0 127 0" result="hardAlpha"/>
<feOffset dx="4" dy="4"/>
<feComposite in2="hardAlpha" operator="out"/>
<feColorMatrix type="matrix" values="0 0 0 0 0 0 0 0 0 0 0 0 0 0 0 0 0 0 1 0"/>
<feBlend mode="normal" in2="BackgroundImageFix" result="effect1_dropShadow_93_27"/>
<feBlend mode="normal" in="SourceGraphic" in2="effect1_dropShadow_93_27" result="shape"/>
</filter>
<filter id="filter10_d_93_27" x="397.71" y="4.91504" width="107.002" height="188.557" filterUnits="userSpaceOnUse" color-interpolation-filters="sRGB">
<feFlood flood-opacity="0" result="BackgroundImageFix"/>
<feColorMatrix in="SourceAlpha" type="matrix" values="0 0 0 0 0 0 0 0 0 0 0 0 0 0 0 0 0 0 127 0" result="hardAlpha"/>
<feOffset dx="4" dy="4"/>
<feComposite in2="hardAlpha" operator="out"/>
<feColorMatrix type="matrix" values="0 0 0 0 0 0 0 0 0 0 0 0 0 0 0 0 0 0 1 0"/>
<feBlend mode="normal" in2="BackgroundImageFix" result="effect1_dropShadow_93_27"/>
<feBlend mode="normal" in="SourceGraphic" in2="effect1_dropShadow_93_27" result="shape"/>
</filter>
<filter id="filter11_d_93_27" x="344.145" y="5.16504" width="38.6666" height="190.302" filterUnits="userSpaceOnUse" color-interpolation-filters="sRGB">
<feFlood flood-opacity="0" result="BackgroundImageFix"/>
<feColorMatrix in="SourceAlpha" type="matrix" values="0 0 0 0 0 0 0 0 0 0 0 0 0 0 0 0 0 0 127 0" result="hardAlpha"/>
<feOffset dx="4" dy="4"/>
<feComposite in2="hardAlpha" operator="out"/>
<feColorMatrix type="matrix" values="0 0 0 0 0 0 0 0 0 0 0 0 0 0 0 0 0 0 1 0"/>
<feBlend mode="normal" in2="BackgroundImageFix" result="effect1_dropShadow_93_27"/>
<feBlend mode="normal" in="SourceGraphic" in2="effect1_dropShadow_93_27" result="shape"/>
</filter>
<filter id="filter12_d_93_27" x="226.033" y="6.91113" width="103.012" height="187.06" filterUnits="userSpaceOnUse" color-interpolation-filters="sRGB">
<feFlood flood-opacity="0" result="BackgroundImageFix"/>
<feColorMatrix in="SourceAlpha" type="matrix" values="0 0 0 0 0 0 0 0 0 0 0 0 0 0 0 0 0 0 127 0" result="hardAlpha"/>
<feOffset dx="4" dy="4"/>
<feComposite in2="hardAlpha" operator="out"/>
<feColorMatrix type="matrix" values="0 0 0 0 0 0 0 0 0 0 0 0 0 0 0 0 0 0 1 0"/>
<feBlend mode="normal" in2="BackgroundImageFix" result="effect1_dropShadow_93_27"/>
<feBlend mode="normal" in="SourceGraphic" in2="effect1_dropShadow_93_27" result="shape"/>
</filter>
<filter id="filter13_d_93_27" x="114.705" y="3.16992" width="99.7697" height="199.779" filterUnits="userSpaceOnUse" color-interpolation-filters="sRGB">
<feFlood flood-opacity="0" result="BackgroundImageFix"/>
<feColorMatrix in="SourceAlpha" type="matrix" values="0 0 0 0 0 0 0 0 0 0 0 0 0 0 0 0 0 0 127 0" result="hardAlpha"/>
<feOffset dx="4" dy="4"/>
<feComposite in2="hardAlpha" operator="out"/>
<feColorMatrix type="matrix" values="0 0 0 0 0 0 0 0 0 0 0 0 0 0 0 0 0 0 1 0"/>
<feBlend mode="normal" in2="BackgroundImageFix" result="effect1_dropShadow_93_27"/>
<feBlend mode="normal" in="SourceGraphic" in2="effect1_dropShadow_93_27" result="shape"/>
</filter>
<filter id="filter14_d_93_27" x="0.0430908" y="3.91797" width="104.01" height="187.31" filterUnits="userSpaceOnUse" color-interpolation-filters="sRGB">
<feFlood flood-opacity="0" result="BackgroundImageFix"/>
<feColorMatrix in="SourceAlpha" type="matrix" values="0 0 0 0 0 0 0 0 0 0 0 0 0 0 0 0 0 0 127 0" result="hardAlpha"/>
<feOffset dx="4" dy="4"/>
<feComposite in2="hardAlpha" operator="out"/>
<feColorMatrix type="matrix" values="0 0 0 0 0 0 0 0 0 0 0 0 0 0 0 0 0 0 1 0"/>
<feBlend mode="normal" in2="BackgroundImageFix" result="effect1_dropShadow_93_27"/>
<feBlend mode="normal" in="SourceGraphic" in2="effect1_dropShadow_93_27" result="shape"/>
</filter>
</defs>
</svg>
